<svg width="98.421" height="73" viewBox="0 0 98.421 73" xmlns="http://www.w3.org/2000/svg" xmlns:xlink="http://www.w3.org/1999/xlink">
    <defs>
        <path id="4byso5g9ua" d="M0 0h2.379v2.378H0z"/>
        <path id="yybmn2cwwc" d="M0 0h14.658v12.8H0z"/>
        <path id="i83v1vxzye" d="M0 0h15.939v12.8H0z"/>
    </defs>
    <g fill="none" fill-rule="evenodd">
        <g transform="translate(48.03)">
            <mask id="gdhk40y2qb" fill="#fff">
                <use xlink:href="#4byso5g9ua"/>
            </mask>
            <path d="M2.379 1.189a1.19 1.19 0 1 1-2.378 0 1.19 1.19 0 0 1 2.378 0" fill="#DFAB74" mask="url(#gdhk40y2qb)"/>
        </g>
        <path d="M50.13 34.856a.904.904 0 1 1-1.81-.001.904.904 0 0 1 1.81 0M65.185 36.036c-.29.22-.365.05-.421-.224-.326-1.585.709-3.82 2.12-4.586.328-.178.515-.068.604.245.053.189.04.397.057.596.05 1.824-1.042 2.965-2.36 3.969m1.69-10.81c.587-1.26.887-2.6 1.127-3.96.064-.365.07-1.027.48-.966.533.079.388.73.329 1.146a12.605 12.605 0 0 1-2.163 5.534c-.38.543-.7 1.137-1.404 1.666.605-1.266 1.13-2.338 1.632-3.42m3.306 3.807c-2.257-.621-3.766.609-5.193 2.103.15-.491.455-.837.744-1.192 1.167-1.436 2.334-2.87 3.278-4.47.732-1.24 1.313-2.526 1.373-3.997.053-1.313-.027-2.633.213-3.935.02-.111.048-.236-.071-.3-.151-.08-.234.063-.337.135-1.335.943-2.607 1.948-3.391 3.435-.008.017-.071.006-.141.009l-.125-.648c-.254-1.333-1.23-2.435-2.238-2.543-.472-.051-.627.072-.406.55.79 1.704.895 3.523.85 5.36-.047 1.979-.587 3.869-1.062 5.768-.384 1.533-.834 3.048-.74 4.66.09 1.54 1.027 2.553 2.114 3.655 0-.305.047-.48-.01-.61-.2-.462-.076-.608.43-.618.466-.01.893-.237 1.314-.45 1.166-.591 1.754-1.677 2.378-2.73.76-1.286 1.63-2.451 3.164-3.011-.575-.723-1.348-.953-2.144-1.171M30.877 32.067c.017-.2.004-.407.057-.596.089-.313.276-.423.603-.245 1.412.766 2.446 3 2.12 4.585-.056.275-.131.445-.42.225-1.32-1.004-2.411-2.145-2.36-3.97m2.3-3.42c-.704-.53-1.025-1.123-1.403-1.666a12.619 12.619 0 0 1-2.164-5.534c-.058-.415-.203-1.068.329-1.147.41-.06.417.6.48.967.24 1.36.54 2.7 1.126 3.96.503 1.08 1.027 2.153 1.633 3.42m-7.082 1.558c1.534.559 2.403 1.725 3.164 3.01.623 1.054 1.212 2.14 2.377 2.73.422.214.849.442 1.315.45.506.01.629.157.428.62-.056.13-.008.304-.008.609 1.087-1.102 2.023-2.114 2.113-3.654.094-1.613-.355-3.128-.74-4.661-.474-1.9-1.014-3.79-1.062-5.767-.044-1.838.06-3.657.85-5.362.222-.477.066-.6-.405-.55-1.008.109-1.984 1.21-2.238 2.544l-.125.648c-.071-.003-.133.008-.142-.01-.784-1.486-2.055-2.491-3.39-3.434-.103-.073-.186-.216-.338-.135-.12.064-.09.189-.07.299.24 1.303.16 2.623.213 3.936.059 1.47.64 2.756 1.373 3.997.944 1.6 2.11 3.034 3.278 4.47.288.355.594.7.744 1.19-1.427-1.492-2.936-2.722-5.193-2.102-.797.219-1.57.449-2.144 1.172" fill="#DFAB74"/>
        <path d="M52.764 24.99c.17-.303.382-.603.788-.402.38.188.345.517.206.864-.338.844-.736 1.665-.902 2.575-.357 1.959 1.281 4.265 3.342 4.666 2.001.389 4.061-1.04 4.48-3.08.135-.663.124-1.328.13-1.996 0-.446-.016-.892.004-1.337.012-.244.067-.556.341-.591.336-.042.426.29.47.546.402 2.34-.18 4.37-1.94 6.013-1.378 1.286-2.997 1.296-4.626.708-1.69-.611-2.709-1.901-3.086-3.662-.33-1.537.043-2.96.793-4.304m-6.302 4.304c-.377 1.76-1.396 3.05-3.087 3.662-1.628.588-3.247.578-4.625-.708-1.76-1.643-2.343-3.673-1.94-6.013.043-.256.134-.588.47-.546.273.035.33.347.34.59.021.446.006.892.006 1.338.004.668-.007 1.333.13 1.996.417 2.04 2.477 3.469 4.478 3.08 2.061-.401 3.7-2.707 3.342-4.666-.166-.91-.563-1.731-.9-2.575-.14-.347-.176-.676.205-.864.405-.201.618.099.787.402.751 1.344 1.123 2.767.794 4.304m17.133-16.27c-.069-.108-.21-.065-.317-.06-.623.037-1.247.074-1.869.13-2.303.208-4.508.775-6.338 2.242-2.067 1.658-3 3.979-3.466 6.52-.205 1.12-.4 2.244-.834 3.36-.236-.98-.069-1.945.057-2.911.303-2.33 1.164-4.523 1.668-6.8.71-3.215.282-6.295-1.54-9.11-.596-.92-1.13-1.864-1.37-2.952-.035-.16-.056-.365-.152-.496a.257.257 0 0 0-.172-.12.375.375 0 0 0-.07-.011c-.167-.01-.252.068-.3.176-.075.13-.095.312-.127.456-.238 1.087-.774 2.032-1.369 2.95-1.823 2.816-2.25 5.896-1.54 9.11.503 2.278 1.365 4.472 1.668 6.8.126.965.292 1.93.058 2.907-.435-1.117-.63-2.242-.836-3.363-.465-2.541-1.398-4.863-3.465-6.52-1.83-1.467-4.035-2.034-6.338-2.242a58.3 58.3 0 0 0-1.87-.13c-.109-.005-.256-.05-.322.073-.03.022-.064.056-.103.083.046.05.094.093.143.13.034.03.075.056.113.08.615.395 1.17.846 1.682 1.337.063.119.161.226.281.347.587.592 1.168 1.218 1.611 1.919.827 1.309 1.741 2.474 3.253 3.042.083.03.163.066.245.1.95.434 1.894.877 2.741 1.505.542.402.96.882 1.26 1.55.052.15.094.31.123.484a7.156 7.156 0 0 0-.36-.244c-1.165-.847-2.439-1.011-3.735-1.096-.242-.016-.489.026-.73.055-.019.002-.035.008-.052.013-.138 0-.306-.01-.33.167-.03.206.193.236.328.26.67.118.971.634 1.147 1.175a28.305 28.305 0 0 0 1.807 4.305c.76 1.46.05 2.977-1.397 3.47l-.036.014c-.004 0-.009.002-.014.004-1.25.367-2.747.043-3.466-.868-.54-.684-.572-1.423-.154-2.187.385-.701.822-1.371.99-2.18.363-1.75-1.324-3.592-3.106-3.37-.366.045-.6.263-.808.536-.658.868-.947 1.879-.986 2.935-.075 2.044.23 3.977 1.688 5.596 1.86 2.063 4.792 2.763 7.35 2.026a5.18 5.18 0 0 0 1.665-.725c1.261-.761 2.314-1.952 2.92-3.591.15-.406.194-.816.196-1.244.015-4.264-.347-8.514-.459-12.773-.049-1.874-.088-3.748.052-5.62.028-.38.106-.75.258-1.1.06-.14.141-.272.295-.298.172.015.257.155.321.302.152.35.23.72.258 1.1.14 1.872.101 3.746.051 5.62-.112 4.259-.473 8.509-.458 12.773.001.428.045.838.196 1.244.634 1.716 1.758 2.94 3.1 3.694.441.265.902.466 1.365.584 2.585.795 5.58.108 7.47-1.988 1.46-1.618 1.763-3.551 1.688-5.596-.039-1.056-.329-2.067-.987-2.935-.207-.273-.442-.491-.808-.536-1.782-.222-3.468 1.622-3.105 3.37.168.81.605 1.479.99 2.18.418.764.386 1.504-.154 2.187-.439.555-1.166.892-1.95.987l-.064.007c-.022.003-.045.003-.068.005a4.344 4.344 0 0 1-.739-.006c-.05-.005-.099-.012-.148-.02-.027-.003-.054-.008-.08-.012-1.753-.3-2.703-1.98-1.865-3.59a28.178 28.178 0 0 0 1.808-4.305c.176-.54.476-1.057 1.147-1.174.134-.024.357-.055.328-.26-.027-.194-.223-.164-.367-.168l-.014-.004c-.243-.03-.489-.07-.73-.055-1.25.082-2.479.239-3.609 1.009a6.722 6.722 0 0 0-.487.323c.025-.155.061-.3.106-.437a3.807 3.807 0 0 1 1.277-1.59c.897-.664 1.904-1.121 2.91-1.581l.075-.032a5.005 5.005 0 0 0 1.441-.838l.015-.012.076-.065a4.76 4.76 0 0 0 .47-.451c.47-.498.87-1.071 1.252-1.675.443-.701 1.023-1.328 1.61-1.92.115-.115.211-.217.274-.331a11.137 11.137 0 0 1 1.69-1.344c.05-.032.107-.066.143-.112.038-.031.076-.066.112-.106-.04-.03-.076-.066-.108-.088M64.101 39.588c-.053.212-.191.11-.422.052-1.202-.18-2.525-.44-3.865-.507-.393-.019-.411-.149-.412-.45 0-.236.271-.212.47-.197a23.73 23.73 0 0 1 3.684.59c.149.036.302.084.434.16.128.071.145.215.111.352m-6.491-.98c-.054.3-.34.223-.553.208-.89-.06-1.779-.153-2.67-.188-.457-.018-.913-.034-1.37-.049a81.927 81.927 0 0 0-3.775-.07 81.927 81.927 0 0 0-3.775.07c-.457.015-.914.031-1.37.05-.891.034-1.78.127-2.67.187-.214.015-.499.091-.553-.208-.061-.338.245-.375.482-.42 1.274-.24 2.57-.294 3.858-.368a83.332 83.332 0 0 1 4.028-.145c1.343.013 2.686.067 4.028.145 1.288.074 2.584.127 3.857.368.238.045.543.082.483.42m-19.045.427c-1.34.084-2.631.424-3.832.605-.231.058-.37.16-.423-.052-.034-.137-.017-.28.111-.353.133-.075.285-.123.435-.159 1.229-.292 2.458-.599 3.728-.65.197-.008.413.001.425.257.014.301-.13.333-.444.352m26.8-.719a2.729 2.729 0 0 0-1.37-.785c-1.132-.265-2.289-.329-3.439-.447l-.338-.039a108.454 108.454 0 0 0-7.462-.628c-.14-.008-.281-.012-.421-.019l-.301-.012a60.643 60.643 0 0 0-1.956-.054c-.279-.003-.557-.003-.836-.003-.279 0-.558 0-.836.003a60.643 60.643 0 0 0-2.257.066c-.141.007-.281.011-.422.02-2.493.115-4.979.34-7.461.627l-.338.04c-1.15.117-2.307.181-3.439.446a2.732 2.732 0 0 0-1.371.785c-.568.592-.475 1.05.27 1.382.141.063.291.105.506.18-.588.568-1.021 1.187-.761 2.018.133.424.435.712.978.838-.181-.393-.408-.744-.13-1.125.278-.382.691-.472 1.113-.523 1.725-.208 3.454-.393 5.178-.606a74.608 74.608 0 0 1 4.544-.42c.072 0 .146-.005.22-.014a79.69 79.69 0 0 1 4.206-.14c1.404.01 2.806.056 4.205.14.075.01.148.013.221.013 1.517.095 3.031.233 4.544.421 1.724.213 3.452.398 5.178.606.422.051.835.141 1.113.523.277.381.051.732-.131 1.125.544-.126.846-.414.979-.838.259-.83-.173-1.45-.761-2.018.215-.075.365-.117.506-.18.745-.332.838-.79.269-1.382" fill="#DFAB74"/>
        <g transform="translate(0 49.405)">
            <mask id="hcdc1x9qhd" fill="#fff">
                <use xlink:href="#yybmn2cwwc"/>
            </mask>
            <path d="M3.883 12.8v-.018c.409-.124.69-.387.845-.79.155-.402.232-.988.232-1.756V2.564c0-.768-.077-1.353-.232-1.756a1.254 1.254 0 0 0-.845-.789V0h5.815v.335L8.713.52c-.322.063-.616.14-.882.233-.267.093-.49.226-.67.399-.18.174-.3.4-.361.678a4.339 4.339 0 0 0-.093.938v9.549h2.805c.68 0 1.303-.127 1.867-.381.563-.254 1.025-.579 1.384-.975s.619-.762.78-1.096c.16-.335.272-.607.334-.817l.446-1.375h.335V12.8H3.883zM0 12.8v-.334l.799-.186c.42-.099.78-.214 1.078-.344.297-.13.526-.325.687-.585.16-.26.242-.7.242-1.319V2.768c0-.532-.063-.931-.186-1.198a1.378 1.378 0 0 0-.604-.631C1.736.784 1.332.644.799.52l-.8-.185V0h2.23c.595 0 1.06.084 1.394.251.334.167.573.425.715.771.142.347.214.861.214 1.542v7.672c0 .731-.06 1.258-.177 1.58-.118.322-.356.566-.715.733-.36.167-.898.251-1.616.251H0z" fill="#DFAB74" mask="url(#hcdc1x9qhd)"/>
        </g>
        <path d="M19.933 62.205v-.018c.41-.124.69-.387.845-.79.155-.402.232-.988.232-1.756V51.97c0-.768-.077-1.353-.232-1.756a1.254 1.254 0 0 0-.845-.789v-.019h11.425v4.385h-.335l-.222-.744a5.2 5.2 0 0 0-.456-1.049 4.466 4.466 0 0 0-.863-1.068 3.673 3.673 0 0 0-1.292-.78 4.348 4.348 0 0 0-1.458-.26h-3.975v5.387h.947c.396 0 .755-.034 1.078-.102.321-.068.588-.164.798-.288.211-.124.41-.29.595-.502.186-.21.346-.514.483-.91l.39-1.208h.297v6.465h-.297l-.39-1.189c-.223-.656-.567-1.124-1.03-1.402-.466-.279-1.106-.418-1.924-.418h-.947v6h3.585a4.77 4.77 0 0 0 1.895-.38 3.965 3.965 0 0 0 1.505-1.115c.408-.49.724-1.019.947-1.589l.465-1.189h.334v4.756H19.933zm-3.883 0v-.334l.8-.186c.42-.099.78-.214 1.077-.344.297-.13.526-.325.687-.585.161-.26.242-.7.242-1.319v-7.264c0-.532-.063-.93-.186-1.198a1.378 1.378 0 0 0-.604-.63c-.279-.156-.684-.296-1.217-.42l-.799-.185v-.335h2.23c.594 0 1.06.084 1.393.251.334.167.573.425.715.771.142.347.214.861.214 1.542v7.672c0 .731-.059 1.258-.177 1.58-.118.322-.356.566-.715.733-.359.167-.898.251-1.616.251H16.05zM48.356 62.205a10.1 10.1 0 0 0-.67-.77 5.442 5.442 0 0 0-.76-.642V58.23c.012-.459.068-.858.167-1.199.099-.34.238-.579.418-.715a.9.9 0 0 1 .548-.204h2.433l.019.334-.8.28c-.407.135-.693.358-.853.668-.161.31-.242.792-.242 1.45v3.361h-.26zm-6.818.316a5.57 5.57 0 0 1-4.272-1.914 6.387 6.387 0 0 1-1.226-2.117 7.659 7.659 0 0 1-.428-2.583c0-1.3.245-2.467.734-3.5.489-1.035 1.183-1.84 2.08-2.417a5.319 5.319 0 0 1 2.926-.863c.446 0 .9.037 1.366.111a8.63 8.63 0 0 1 1.272.297c.384.124.762.27 1.134.437.37.167.588.251.65.251.124 0 .316-.084.576-.25.26-.168.65-.456 1.17-.865h.26v5.072h-.334a8.868 8.868 0 0 0-1.031-2.035c-.427-.625-.901-1.13-1.421-1.513a5.243 5.243 0 0 0-1.59-.79 6.061 6.061 0 0 0-1.773-.269c-1.362 0-2.39.532-3.084 1.597-.693 1.066-1.04 2.607-1.04 4.626 0 1.251.167 2.356.502 3.316.334.96.842 1.694 1.523 2.201.68.508 1.498.762 2.452.762.396 0 .814-.037 1.254-.11.44-.076.814-.187 1.124-.336.235-.11.384-.266.446-.464s.093-.409.093-.632V58.88c0-.68-.09-1.183-.27-1.505-.18-.322-.51-.545-.993-.669l-.985-.26v-.334h4.55v.018a1.136 1.136 0 0 0-.352.381c-.111.18-.195.421-.251.725a4.692 4.692 0 0 0-.065.994v2.786a7.6 7.6 0 0 1-1.56.91 6.485 6.485 0 0 1-1.718.474c-.601.08-1.174.121-1.72.121zm-2.731-.298c-1.721-.445-3.056-1.222-4.003-2.33-.947-1.109-1.421-2.475-1.421-4.097 0-.805.127-1.542.38-2.21a6.573 6.573 0 0 1 1.032-1.812c.433-.539.987-1.019 1.662-1.44a7.545 7.545 0 0 1 2.276-.929l.019.038a6.614 6.614 0 0 0-.911.52 5.219 5.219 0 0 0-.975.863 6.606 6.606 0 0 0-.864 1.245 6.898 6.898 0 0 0-.622 1.663 8.005 8.005 0 0 0-.232 1.913c0 1.536.312 2.855.938 3.957.625 1.103 1.539 1.963 2.74 2.583l-.02.036zM65.224 62.205c-.161 0-.332-.047-.511-.139-.18-.093-.387-.266-.622-.52-.236-.254-.59-.784-1.06-1.589l-5.48-9.418.818-1.524h.26l6.706 11.5c.223.396.483.693.78.891.298.198.644.335 1.04.41l.28.055v.334h-2.211zm-11.11-4.198h5.37l-2.824-4.83-2.545 4.83zm-3.975 4.198v-.334l.316-.075c.26-.06.539-.198.836-.408.297-.21.592-.527.883-.948.29-.42.622-.978.993-1.672l4.162-7.802 5.368 9.214c.36.62.654 1.075.883 1.365.229.292.443.505.64.642v.018h-5.368v-.334l.687-.13c.335-.062.607-.143.818-.242.21-.099.353-.213.427-.344a.74.74 0 0 0 .112-.362c0-.247-.106-.55-.316-.91l-.836-1.43h-5.871l-.037.074a3.312 3.312 0 0 0-.26.687 2.76 2.76 0 0 0-.111.706c0 .446.145.83.436 1.152.29.322.703.545 1.236.67l.538.13v.333h-5.536zM75.534 62.521c-.483 0-.975-.056-1.477-.167-.501-.112-1-.307-1.495-.585-.496-.279-.979-.684-1.449-1.217-.471-.532-.861-1.217-1.171-2.053a7.736 7.736 0 0 1-.464-2.703c0-.632.071-1.254.213-1.867.143-.613.35-1.189.623-1.728a6.254 6.254 0 0 1 1.087-1.514 5.084 5.084 0 0 1 1.662-1.133c.657-.285 1.387-.427 2.192-.427.446 0 .901.037 1.366.111.464.075.882.174 1.254.298.371.124.74.27 1.105.436.365.167.585.251.659.251.137 0 .356-.096.66-.288a9.885 9.885 0 0 0 1.087-.827h.26v5.258h-.335a8.692 8.692 0 0 0-.882-1.95 6.553 6.553 0 0 0-1.273-1.524 5.36 5.36 0 0 0-3.566-1.319c-.372 0-.771.053-1.199.158a3.13 3.13 0 0 0-1.188.585 3.632 3.632 0 0 0-.92 1.077 5.985 5.985 0 0 0-.585 1.468 9.325 9.325 0 0 0-.279 1.644c-.043.551-.065 1.05-.065 1.495 0 .892.096 1.703.288 2.434.192.731.483 1.36.873 1.886.39.526.886.93 1.486 1.207.601.28 1.298.418 2.09.418 1.375 0 2.558-.353 3.548-1.059 1.016-.706 1.648-1.709 1.895-3.009h.483c-.136.78-.38 1.45-.733 2.006a4.826 4.826 0 0 1-1.329 1.393c-1.164.83-2.638 1.245-4.421 1.245zm-2.935-.334c-.384-.1-.818-.242-1.301-.428a6.533 6.533 0 0 1-1.411-.76 6.574 6.574 0 0 1-1.208-1.088 5.5 5.5 0 0 1-.855-1.347 6.012 6.012 0 0 1-.455-1.468 8.025 8.025 0 0 1-.12-1.3c0-.607.089-1.229.269-1.867.179-.638.502-1.269.966-1.895a6.385 6.385 0 0 1 1.765-1.607 8.031 8.031 0 0 1 2.35-.984l.018.037a6.608 6.608 0 0 0-.91.52 5.345 5.345 0 0 0-.975.855 6.273 6.273 0 0 0-.864 1.235 6.887 6.887 0 0 0-.622 1.653 7.898 7.898 0 0 0-.233 1.905c0 1.523.307 2.836.92 3.938.613 1.102 1.508 1.957 2.684 2.563l-.018.038z" fill="#DFAB74"/>
        <g transform="translate(82.482 49.405)">
            <mask id="hgnateouqf" fill="#fff">
                <use xlink:href="#i83v1vxzye"/>
            </mask>
            <path d="M7.672 12.8v-.018c.384-.124.66-.397.827-.818.167-.421.25-1.071.25-1.95V7.58L5.517 2.936a26.039 26.039 0 0 0-1.375-1.867C3.758.604 3.387.254 3.028.019V0h5.721v.335l-.687.13a3.41 3.41 0 0 0-.817.241c-.211.1-.353.214-.428.344a.741.741 0 0 0-.111.362c0 .248.118.545.353.892l3.14 4.514 1.913-3.139c.161-.248.297-.505.409-.771.111-.266.167-.542.167-.827 0-.805-.557-1.344-1.672-1.616l-.539-.13V0h5.462v.335l-.297.074c-.434.111-.874.406-1.319.883-.446.476-.954 1.192-1.524 2.145l-2.303 3.808v2.787c0 .533.062.932.186 1.198.123.267.325.477.603.632.279.155.684.294 1.217.418l.799.186v.334H7.672zm-3.883 0v-.334l.799-.186c.421-.099.78-.214 1.078-.344.297-.13.526-.325.687-.585.161-.26.242-.7.242-1.319V8.1L2.229 1.914c-.322-.458-.619-.796-.892-1.013C1.065.685.712.52.278.409L0 .335V0h2.117c.322 0 .719.239 1.189.716.471.477 1.109 1.303 1.914 2.48l3.121 4.532v2.36c0 .532-.025.96-.075 1.282a1.721 1.721 0 0 1-.315.798c-.161.211-.412.369-.753.474-.341.105-.796.158-1.365.158H3.789z" fill="#DFAB74" mask="url(#hgnateouqf)"/>
        </g>
        <path d="M9.346 67.8v2.043h2.332c.325 0 .684-.044.983-.324a.982.982 0 0 0 .307-.702.967.967 0 0 0-.272-.666c-.272-.29-.641-.35-1.018-.35H9.346zm-.763 5.051v-5.726h3.095c.746 0 1.246.202 1.605.578a1.623 1.623 0 0 1-.07 2.29c-.342.332-.824.525-1.535.525H9.346v2.333h-.763zM17.043 70.519h2.315l-1.131-2.5h-.053l-1.131 2.5zM15.21 72.85l2.657-5.727h.719l2.657 5.728h-.833l-.78-1.72h-2.859L16 72.852h-.79zM24.574 67.8v2.043h2.587c.63 0 1.096-.465 1.096-1.026a.97.97 0 0 0-.272-.666c-.281-.28-.622-.35-1.017-.35h-2.394zm-.763 5.051v-5.726h3.157c.736 0 1.245.202 1.605.578.28.3.438.684.438 1.123 0 .771-.526 1.376-1.333 1.596l1.412 2.43h-.868l-1.315-2.334h-2.333v2.333h-.763zM36.927 67.125l-2.28 2.184 2.762 3.542h-.982l-2.332-3.034-1.377 1.342v1.692h-.763v-5.726h.763v3.183l3.27-3.183zM44.499 67.8v2.043h2.587c.63 0 1.096-.465 1.096-1.026a.97.97 0 0 0-.272-.666c-.28-.28-.622-.35-1.017-.35h-2.394zm-.763 5.051v-5.726h3.157c.737 0 1.245.202 1.605.578.28.3.438.684.438 1.123 0 .771-.526 1.376-1.333 1.596l1.412 2.43h-.868l-1.315-2.334h-2.333v2.333h-.763zM55.693 70.176h-2.315v2h4.042v.675h-4.805v-5.727h4.604v.676h-3.841v1.701h2.315zM64.206 68.335c-.342-.307-1.07-.71-2.122-.71-.737 0-1.491.263-1.491.982 0 .737.947.772 1.877.824.999.07 2.613.167 2.613 1.7 0 1.334-1.184 1.869-2.561 1.869-1.455 0-2.385-.605-3.007-1.175l.464-.526c.483.447 1.28 1.052 2.56 1.052.974 0 1.78-.35 1.78-1.122 0-.86-.876-.991-1.85-1.061-1.236-.08-2.64-.167-2.64-1.491 0-1.306 1.255-1.701 2.28-1.701 1.185 0 2.115.473 2.553.833l-.456.526zM70.517 72.325c1.342 0 2.394-1.052 2.394-2.35 0-1.28-1.052-2.324-2.394-2.324s-2.376 1.044-2.376 2.324c0 1.298 1.034 2.35 2.376 2.35m0-5.35c1.771 0 3.192 1.342 3.192 3 0 1.683-1.42 3.025-3.192 3.025-1.78 0-3.174-1.342-3.174-3.025 0-1.658 1.394-3 3.174-3M78.037 67.8v2.043h2.587c.631 0 1.096-.465 1.096-1.026a.974.974 0 0 0-.272-.666c-.28-.28-.623-.35-1.017-.35h-2.394zm-.763 5.051v-5.726h3.157c.736 0 1.245.202 1.605.578.28.3.438.684.438 1.123 0 .771-.526 1.376-1.333 1.596l1.412 2.43h-.868l-1.315-2.334h-2.333v2.333h-.763zM84.63 67.125h5.208v.675H87.62v5.05h-.763V67.8H84.63z" fill="#DFAB74"/>
    </g>
</svg>
