<svg width="91" height="76" viewBox="0 0 91 76" xmlns="http://www.w3.org/2000/svg" xmlns:xlink="http://www.w3.org/1999/xlink">
    <defs>
        <path d="M2.595 11.607a19.723 19.723 0 0 0 5.53 5.863c4.526 3.18 9.299 2.98 13.61 2.788 5.051-.224 9.47-.455 12.122 4.742 0 0 1.755-8.98-7.02-15.882C18.068 2.216 14.684 9.908.107 0c0 0-.896 6.136 2.488 11.6" id="9q6zt4hgja"/>
    </defs>
    <g fill="none" fill-rule="evenodd">
        <path d="M58 25.83c-.067 2.092-2.998 8.445-11 3.049 0 0 10.491-2.317 1.49-7.855 0 0 2.623-.18 4.688.453 0 0 1.709.416 2.999 1.757 0 0 .581.56.878 1l.648 1.018.297.565v.013zM34.458 6.552c6.571.525 7.072.013 12.542 13.673 0 0-7.003-1.455-7.654.775 0 0-6.678-13.236-7.993-11.868 0 0-.776 1.618-1.208 1.93l-1.94-.406.826-2.798c-4.312.193-5.94-5.74-4.543-7.858 0 0-.238 5.728 9.976 6.546" fill="#2E8591" fill-rule="nonzero"/>
        <path d="M26.784 12.216c1.067 2.17 2.962 4.187 5.497 6.03 9.776 7.101 20.695-2.163 25.577 7.754 0 0 1.744-9.239-6.978-16.339-8.722-7.1-25.52-.224-26.624-9.661 0 0-1.444 4.149 2.528 12.216" fill="#6EC7D9" fill-rule="nonzero"/>
        <g transform="translate(24 1)">
            <mask id="csyfrfr1mb" fill="#fff">
                <use xlink:href="#9q6zt4hgja"/>
            </mask>
            <path d="M34.033 21.838c-.056-9.621-17.979-11.314-17.979-11.314 9.009-.124 14.823 3.311 17.468 7.014 0 0 1.44 4.437 4.647 9.572l-4.136-5.272z" fill="#2E8591" fill-rule="nonzero" mask="url(#csyfrfr1mb)"/>
        </g>
        <path d="M88.704 59.908h.213c.247 0 .454-.082.454-.29 0-.182-.132-.3-.414-.3-.121 0-.202.011-.253.023v.573-.006zm-.012 1.117h-.455v-1.991c.179-.024.432-.06.749-.06.368 0 .535.06.661.155.121.088.202.23.202.425 0 .242-.178.402-.403.473v.023c.19.06.288.219.345.485.058.307.11.413.144.484h-.472c-.063-.07-.092-.242-.155-.484-.04-.207-.155-.302-.403-.302h-.213v.792zm-1.197-1.034c0 .886.65 1.59 1.52 1.59.84.011 1.484-.704 1.484-1.578 0-.874-.644-1.601-1.508-1.601-.863 0-1.49.715-1.49 1.59m3.499 0A1.985 1.985 0 0 1 89.009 62 1.996 1.996 0 0 1 87 59.991C87 58.87 87.892 58 89.02 58c1.128 0 1.98.874 1.98 1.991M.074 36.95c-.223-.475.077-.95.64-.95h3.824c.34 0 .563.219.64.406l7.194 15.75h.262l7.195-15.75a.696.696 0 0 1 .633-.406h3.824c.563 0 .863.475.64.95L13.312 61.6c-.115.219-.3.4-.64.4h-.377c-.339 0-.524-.181-.64-.4L.076 36.95zM28.724 36h3.552c.398 0 .724.317.724.704v24.592a.716.716 0 0 1-.724.704h-3.552a.716.716 0 0 1-.724-.704V36.704c0-.387.326-.704.724-.704zM39 36.704c0-.374.291-.704.65-.704h8.606C55.263 36 61 41.831 61 48.962 61 56.092 55.263 62 48.256 62h-8.605c-.366 0-.651-.336-.651-.704V36.704zm8.822 20.764c4.721 0 8.166-3.638 8.166-8.506s-3.451-8.468-8.166-8.468h-4.138v16.974h4.138zM61.068 61.05 72.723 36.4c.115-.219.3-.4.64-.4h.377c.377 0 .524.181.64.4l11.545 24.65c.224.475-.076.95-.633.95H82.03c-.563 0-.825-.219-1.088-.731l-1.835-3.958H67.9l-1.836 3.958c-.147.368-.486.731-1.088.731h-3.262c-.563 0-.863-.475-.64-.95m16.19-7.802-3.748-8.058h-.115l-3.672 8.058h7.535zM7.018 69.258c-.053-.13.017-.258.153-.258h.917c.083 0 .136.058.153.11l1.73 4.24h.064l1.724-4.24c.017-.046.07-.11.153-.11h.917c.136 0 .206.129.153.258l-2.788 6.632c-.03.058-.07.11-.153.11h-.088c-.082 0-.124-.052-.153-.11l-2.776-6.632h-.006zM16.012 75.742l2.803-6.632c.029-.058.07-.11.153-.11h.088c.088 0 .124.052.153.11l2.773 6.632c.053.13-.017.258-.153.258h-.783c-.135 0-.2-.058-.259-.2l-.442-1.063h-2.69l-.442 1.063c-.035.097-.118.2-.26.2h-.782c-.136 0-.206-.129-.153-.258m3.886-2.101-.901-2.166h-.03l-.883 2.166h1.814zM29.548 69.006c.992 0 1.713.312 2.382.903.09.076.09.197.007.274l-.599.61c-.07.076-.167.076-.245 0a2.328 2.328 0 0 0-1.513-.572c-1.262 0-2.196 1.042-2.196 2.263 0 1.22.947 2.244 2.203 2.244.592 0 1.094-.222 1.506-.553a.18.18 0 0 1 .245 0l.612.623c.077.07.058.197-.007.261-.67.642-1.513.941-2.389.941C27.584 76 26 74.455 26 72.51c0-1.946 1.584-3.51 3.554-3.51M35.012 75.742l2.803-6.632c.029-.058.07-.11.153-.11h.088c.088 0 .124.052.153.11l2.773 6.632c.053.13-.017.258-.153.258h-.783c-.135 0-.2-.058-.259-.2l-.442-1.063h-2.69l-.442 1.063c-.035.097-.118.2-.26.2h-.782c-.136 0-.206-.129-.153-.258m3.886-2.101-.901-2.166h-.03l-.883 2.166h1.814zM45.811 70.197H44.2a.195.195 0 0 1-.2-.19v-.817c0-.098.083-.19.2-.19h4.6c.117 0 .2.092.2.19v.817c0 .099-.083.19-.2.19H47.19v5.613c0 .098-.097.19-.2.19h-.978c-.103 0-.2-.092-.2-.19v-5.613zM53.145 69h.71c.08 0 .145.085.145.19v6.62c0 .105-.065.19-.145.19h-.71c-.08 0-.145-.085-.145-.19v-6.62c0-.105.065-.19.145-.19zM62.497 69A3.493 3.493 0 0 1 66 72.51 3.48 3.48 0 0 1 62.497 76 3.475 3.475 0 0 1 59 72.51 3.487 3.487 0 0 1 62.497 69m0 5.735c1.23 0 2.242-1.005 2.242-2.225a2.261 2.261 0 0 0-2.242-2.245c-1.23 0-2.23 1.024-2.23 2.245 0 1.22 1 2.225 2.23 2.225M70.007 69.178c0-.095.093-.178.192-.178h.252l4.222 4.298h.006V69.28c0-.096.08-.185.193-.185h.936c.1 0 .192.09.192.185v6.542c0 .095-.093.178-.192.178h-.246l-4.241-4.463h-.013v4.183c0 .096-.08.185-.193.185h-.923c-.1 0-.192-.09-.192-.185v-6.542h.007zM81.05 74.956l.314-.604a.194.194 0 0 1 .295-.07c.04.032.746.604 1.315.604.45 0 .791-.33.791-.75 0-.497-.376-.84-1.104-1.165-.82-.37-1.639-.955-1.639-2.1 0-.866.575-1.871 1.958-1.871.888 0 1.565.51 1.741.65.086.056.114.222.051.324l-.33.553c-.068.115-.199.198-.307.115-.068-.051-.728-.535-1.212-.535s-.768.37-.768.681c0 .458.324.77 1.024 1.088.842.382 1.821.942 1.821 2.196C85 75.077 84.226 76 82.997 76c-1.099 0-1.742-.573-1.912-.757-.08-.09-.12-.134-.046-.293" fill="#FFF" fill-rule="nonzero"/>
    </g>
</svg>
